# xmcd CD database file
#
# Track frame offsets:
#	150
#	15334
#	32354
#	50394
#	67490
#	88269
#	107897
#	127316
#	148494
#	170743
#	191950
#	210064
#	228966
#	246849
#	264562
#
# Disc length: 3763 seconds
#
# Revision: 0
# Processed by: cddbd v1.5PL3 Copyright (c) Steve Scherf et al.
# Submitted via: CDex 1.51
#
DISCID=e20eb10f
DTITLE=Francisco Garcia - 15 golden guitar hits
DYEAR=1900
DGENRE=New Age
TTITLE0=blue eyes
TTITLE1=I just call to say I love you
TTITLE2=song for guy
TTITLE3=woman in love
TTITLE4=love of the future
TTITLE5=nothing compares to you
TTITLE6=still got the blues
TTITLE7=dreaming
TTITLE8=you and me in paradise
TTITLE9=a rainy day
TTITLE10=sweet rendez-vous
TTITLE11=waiting for a girl like you
TTITLE12=more than I can bear
TTITLE13=back to san francisco
TTITLE14=everytime you go away
EXTD=
EXTT0=
EXTT1=
EXTT2=
EXTT3=
EXTT4=
EXTT5=
EXTT6=
EXTT7=
EXTT8=
EXTT9=
EXTT10=
EXTT11=
EXTT12=
EXTT13=
EXTT14=
PLAYORDER=
